HIERARCHY
ROOT hips
{
	OFFSET -0.003675 0.299928 -0.021708
	CHANNELS 6 Xposition Yposition Zposition Xrotation Yrotation Zrotation
	JOINT LowerBack
	{
		OFFSET 0.000919 0.177588 0.009275
		CHANNELS 3 Xrotation Yrotation Zrotation
		JOINT spine
		{
			OFFSET 0.000919 0.177588 0.009275
			CHANNELS 3 Xrotation Yrotation Zrotation
			JOINT chest
			{
				OFFSET 0.000456 0.100015 0.004638
				CHANNELS 3 Xrotation Yrotation Zrotation
				JOINT neck
				{
					OFFSET 0.000456 0.100015 0.004638
					CHANNELS 3 Xrotation Yrotation Zrotation
					JOINT head
					{
						OFFSET 0.000924 0.155147 0.009274
						CHANNELS 6 Xposition Yposition Zposition Xrotation Yrotation Zrotation
						End Site
						{
							OFFSET 0.000000 0.153400 0.000000
						}
					}
				}
				JOINT shoulder.L
				{
					OFFSET 0.019937 0.078966 0.057518
					CHANNELS 6 Xposition Yposition Zposition Yrotation Xrotation Zrotation
					JOINT upper_arm.L
					{
						OFFSET 0.177024 -0.020465 -0.095062
						CHANNELS 6 Xposition Yposition Zposition Xrotation Yrotation Zrotation
						JOINT forearm.L
						{
							OFFSET 0.247100 -0.135500 -0.061800
							CHANNELS 3 Xrotation Yrotation Zrotation
							JOINT hand.L
							{
								OFFSET 0.217000 -0.143000 0.039300
								CHANNELS 3 Xrotation Yrotation Zrotation
								JOINT palm.01.L
								{
									OFFSET 0.021770 -0.038291 0.012954
									CHANNELS 6 Xposition Yposition Zposition Yrotation Xrotation Zrotation
									JOINT f_index.01.L
									{
										OFFSET 0.053215 -0.044137 0.008236
										CHANNELS 3 Xrotation Yrotation Zrotation
										JOINT f_index.02.L
										{
											OFFSET 0.036108 -0.024723 -0.010656
											CHANNELS 3 Xrotation Yrotation Zrotation
											JOINT f_index.03.L
											{
												OFFSET 0.021342 -0.014948 -0.010846
												CHANNELS 3 Xrotation Yrotation Zrotation
												End Site
												{
													OFFSET 0.015600 -0.009860 -0.013421
												}
											}
										}
									}
									JOINT thumb.01.L
									{
										OFFSET -0.009090 -0.002348 -0.024223
										CHANNELS 6 Xposition Yposition Zposition Xrotation Yrotation Zrotation
										JOINT thumb.02.L
										{
											OFFSET 0.019713 -0.035076 -0.011120
											CHANNELS 3 Xrotation Yrotation Zrotation
											JOINT thumb.03.L
											{
												OFFSET 0.024877 -0.021748 -0.005176
												CHANNELS 3 Xrotation Yrotation Zrotation
												End Site
												{
													OFFSET 0.016125 -0.013029 -0.001569
												}
											}
										}
									}
								}
								JOINT palm.02.L
								{
									OFFSET 0.032823 -0.025104 0.012281
									CHANNELS 6 Xposition Yposition Zposition Yrotation Xrotation Zrotation
									JOINT f_middle.01.L
									{
										OFFSET 0.055723 -0.038469 0.008037
										CHANNELS 3 Xrotation Yrotation Zrotation
										JOINT f_middle.02.L
										{
											OFFSET 0.038167 -0.027473 -0.015582
											CHANNELS 3 Xrotation Yrotation Zrotation
											JOINT f_middle.03.L
											{
												OFFSET 0.021707 -0.016587 -0.017037
												CHANNELS 3 Xrotation Yrotation Zrotation
												End Site
												{
													OFFSET 0.014112 -0.010584 -0.014294
												}
											}
										}
									}
								}
								JOINT palm.03.L
								{
									OFFSET 0.039230 -0.011402 0.008390
									CHANNELS 6 Xposition Yposition Zposition Yrotation Xrotation Zrotation
									JOINT f_ring.01.L
									{
										OFFSET 0.061796 -0.031470 0.007910
										CHANNELS 3 Xrotation Yrotation Zrotation
										JOINT f_ring.02.L
										{
											OFFSET 0.033092 -0.023401 -0.019127
											CHANNELS 3 Xrotation Yrotation Zrotation
											JOINT f_ring.03.L
											{
												OFFSET 0.021392 -0.015362 -0.017824
												CHANNELS 3 Xrotation Yrotation Zrotation
												End Site
												{
													OFFSET 0.008670 -0.007297 -0.014686
												}
											}
										}
									}
								}
								JOINT palm.04.L
								{
									OFFSET 0.043417 0.002450 0.002889
									CHANNELS 6 Xposition Yposition Zposition Yrotation Xrotation Zrotation
									JOINT f_pinky.01.L
									{
										OFFSET 0.069986 -0.026156 0.003627
										CHANNELS 3 Xrotation Yrotation Zrotation
										JOINT f_pinky.02.L
										{
											OFFSET 0.018520 -0.012813 -0.016429
											CHANNELS 3 Xrotation Yrotation Zrotation
											JOINT f_pinky.03.L
											{
												OFFSET 0.013822 -0.009796 -0.014947
												CHANNELS 3 Xrotation Yrotation Zrotation
												End Site
												{
													OFFSET 0.007238 -0.006103 -0.011657
												}
											}
										}
									}
								}
							}
						}
					}
				}
				JOINT shoulder.R
				{
					OFFSET -0.016662 0.078957 0.057696
					CHANNELS 6 Xposition Yposition Zposition Yrotation Xrotation Zrotation
					JOINT upper_arm.R
					{
						OFFSET -0.176972 -0.020537 -0.095144
						CHANNELS 6 Xposition Yposition Zposition Xrotation Yrotation Zrotation
						JOINT forearm.R
						{
							OFFSET -0.247100 -0.135500 -0.061800
							CHANNELS 3 Xrotation Yrotation Zrotation
							JOINT hand.R
							{
								OFFSET -0.217000 -0.143000 0.039300
								CHANNELS 3 Xrotation Yrotation Zrotation
								JOINT palm.01.R
								{
									OFFSET -0.021773 -0.038278 0.012988
									CHANNELS 6 Xposition Yposition Zposition Yrotation Xrotation Zrotation
									JOINT f_index.01.R
									{
										OFFSET -0.053212 -0.044139 0.008249
										CHANNELS 3 Xrotation Yrotation Zrotation
										JOINT f_index.02.R
										{
											OFFSET -0.036049 -0.024835 -0.010634
											CHANNELS 3 Xrotation Yrotation Zrotation
											JOINT f_index.03.R
											{
												OFFSET -0.021371 -0.014881 -0.010866
												CHANNELS 3 Xrotation Yrotation Zrotation
												End Site
												{
													OFFSET -0.015584 -0.009883 -0.013422
												}
											}
										}
									}
									JOINT thumb.01.R
									{
										OFFSET 0.009113 -0.002381 -0.024211
										CHANNELS 6 Xposition Yposition Zposition Xrotation Yrotation Zrotation
										JOINT thumb.02.R
										{
											OFFSET -0.019694 -0.035097 -0.011088
											CHANNELS 3 Xrotation Yrotation Zrotation
											JOINT thumb.03.R
											{
												OFFSET -0.024867 -0.021762 -0.005168
												CHANNELS 3 Xrotation Yrotation Zrotation
												End Site
												{
													OFFSET -0.016120 -0.013036 -0.001565
												}
											}
										}
									}
								}
								JOINT palm.02.R
								{
									OFFSET -0.032828 -0.025095 0.012286
									CHANNELS 6 Xposition Yposition Zposition Yrotation Xrotation Zrotation
									JOINT f_middle.01.R
									{
										OFFSET -0.055721 -0.038472 0.008040
										CHANNELS 3 Xrotation Yrotation Zrotation
										JOINT f_middle.02.R
										{
											OFFSET -0.038101 -0.027593 -0.015557
											CHANNELS 3 Xrotation Yrotation Zrotation
											JOINT f_middle.03.R
											{
												OFFSET -0.021730 -0.016530 -0.017054
												CHANNELS 3 Xrotation Yrotation Zrotation
												End Site
												{
													OFFSET -0.014096 -0.010608 -0.014293
												}
											}
										}
									}
								}
								JOINT palm.03.R
								{
									OFFSET -0.039192 -0.011488 0.008390
									CHANNELS 6 Xposition Yposition Zposition Yrotation Xrotation Zrotation
									JOINT f_ring.01.R
									{
										OFFSET -0.061839 -0.031387 0.007876
										CHANNELS 3 Xrotation Yrotation Zrotation
										JOINT f_ring.02.R
										{
											OFFSET -0.033068 -0.023437 -0.019125
											CHANNELS 3 Xrotation Yrotation Zrotation
											JOINT f_ring.03.R
											{
												OFFSET -0.021371 -0.015393 -0.017822
												CHANNELS 3 Xrotation Yrotation Zrotation
												End Site
												{
													OFFSET -0.008654 -0.007321 -0.014684
												}
											}
										}
									}
								}
								JOINT palm.04.R
								{
									OFFSET -0.043421 0.002443 0.002845
									CHANNELS 6 Xposition Yposition Zposition Yrotation Xrotation Zrotation
									JOINT f_pinky.01.R
									{
										OFFSET -0.069983 -0.026169 0.003599
										CHANNELS 3 Xrotation Yrotation Zrotation
										JOINT f_pinky.02.R
										{
											OFFSET -0.018501 -0.012842 -0.016428
											CHANNELS 3 Xrotation Yrotation Zrotation
											JOINT f_pinky.03.R
											{
												OFFSET -0.013806 -0.009821 -0.014946
												CHANNELS 3 Xrotation Yrotation Zrotation
												End Site
												{
													OFFSET -0.007226 -0.006121 -0.011655
												}
											}
										}
									}
								}
							}
						}
					}
				}
			}
		}
	}
	JOINT pelvis.L
	{
		OFFSET 0.000000 0.000000 0.000000
		CHANNELS 6 Xposition Yposition Zposition Xrotation Yrotation Zrotation
		JOINT thigh.L
		{
			OFFSET 0.101675 0.001054 -0.000000
			CHANNELS 3 Xrotation Yrotation Zrotation
			JOINT shin.L
			{
				OFFSET 0.000000 -0.534800 0.041000
				CHANNELS 3 Xrotation Yrotation Zrotation
				JOINT foot.L
				{
					OFFSET 0.000000 -0.452000 -0.044800
					CHANNELS 3 Xrotation Yrotation Zrotation
					JOINT toe.L
					{
						OFFSET -0.000000 -0.068500 0.109600
						CHANNELS 3 Xrotation Yrotation Zrotation
						End Site
						{
							OFFSET -0.000000 0.000000 0.067200
						}
					}
				}
				JOINT heel.L
				{
					OFFSET 0.000000 -0.452000 -0.044800
					CHANNELS 3 Xrotation Yrotation Zrotation
					JOINT heel.02.L
					{
						OFFSET -0.038000 -0.085200 0.016200
						CHANNELS 6 Xposition Yposition Zposition Xrotation Yrotation Zrotation
						End Site
						{
							OFFSET 0.080000 -0.000000 0.000000
						}
					}
				}
			}
		}
	}
	JOINT pelvis.R
	{
		OFFSET 0.000000 0.000000 0.000000
		CHANNELS 6 Xposition Yposition Zposition Xrotation Yrotation Zrotation
		JOINT thigh.R
		{
			OFFSET -0.094325 0.001054 0.000000
			CHANNELS 3 Xrotation Yrotation Zrotation
			JOINT shin.R
			{
				OFFSET 0.000000 -0.534800 0.041000
				CHANNELS 3 Xrotation Yrotation Zrotation
				JOINT foot.R
				{
					OFFSET 0.000000 -0.452000 -0.044800
					CHANNELS 3 Xrotation Yrotation Zrotation
					JOINT toe.R
					{
						OFFSET -0.000000 -0.068500 0.109600
						CHANNELS 3 Xrotation Yrotation Zrotation
						End Site
						{
							OFFSET -0.000000 0.000000 0.067200
						}
					}
				}
				JOINT heel.R
				{
					OFFSET 0.000000 -0.452000 -0.044800
					CHANNELS 3 Xrotation Yrotation Zrotation
					JOINT heel.02.R
					{
						OFFSET 0.038000 -0.085200 0.016200
						CHANNELS 6 Xposition Yposition Zposition Xrotation Yrotation Zrotation
						End Site
						{
							OFFSET -0.080000 0.000000 -0.000000
						}
					}
				}
			}
		}
	}
}
MOTION
Frames: 4
Frame Time: 0.041667
0.002453 0.285928 -0.015468 48.804396 74.988019 -46.060156 0.000000 0.000000 -0.000000 0.000000 0.000001 0.000000 0.000000 0.000001 -0.000000 -0.000000 -0.000000 0.000000 0.000924 0.155148 0.009274 18.762801 -0.016810 2.112612 0.019937 0.078966 0.057518 -2.199935 6.484613 34.829996 0.177024 -0.020465 -0.095062 -79.523906 11.564720 -47.394942 -65.718113 -26.126626 -40.809772 0.000001 0.000002 0.000005 0.021770 -0.038291 0.012954 0.000002 0.000004 -0.000002 -0.000003 -0.000001 0.000001 0.000002 0.000000 0.000012 -0.000000 0.000005 0.000002 -0.009090 -0.002348 -0.024223 -0.000002 -0.000000 -0.000001 -0.000000 0.000000 -0.000000 0.000001 0.000002 -0.000002 0.032823 -0.025104 0.012281 0.000000 0.000000 0.000002 -0.000001 0.000003 0.000000 -0.000005 -0.000001 0.000003 -0.000001 0.000000 -0.000003 0.039230 -0.011402 0.008390 0.000005 -0.000001 0.000003 0.000004 0.000006 -0.000002 0.000001 0.000001 0.000001 0.000003 -0.000002 0.000003 0.043417 0.002450 0.002889 -0.000001 0.000001 -0.000002 -0.000001 -0.000003 0.000001 0.000001 0.000004 -0.000003 -0.000000 -0.000002 -0.000000 -0.016662 0.078956 0.057696 10.411580 9.463301 -48.832376 -0.176972 -0.020537 -0.095144 17.178187 62.322785 -46.703635 -16.433247 -35.137068 -63.146192 0.000000 -0.000002 -0.000001 -0.021773 -0.038278 0.012988 -0.000000 0.000001 -0.000002 -0.000000 -0.000000 0.000002 -0.000000 -0.000000 -0.000003 -0.000003 0.000002 0.000001 0.009114 -0.002381 -0.024211 0.000001 -0.000005 0.000002 -0.000003 -0.000002 -0.000001 0.000002 -0.000006 -0.000003 -0.032828 -0.025095 0.012286 0.000002 0.000000 0.000002 -0.000000 -0.000001 0.000002 -0.000000 -0.000002 0.000003 -0.000000 -0.000000 -0.000002 -0.039192 -0.011488 0.008390 0.000002 0.000003 0.000007 -0.000007 0.000003 -0.000002 0.000003 -0.000002 0.000001 -0.000001 0.000002 -0.000003 -0.043421 0.002443 0.002844 0.000000 0.000000 0.000002 -0.000006 0.000002 -0.000001 -0.000003 -0.000003 0.000000 -0.000003 0.000003 -0.000002 0.000000 0.000000 -0.000000 -1.275130 -0.159511 1.095569 -6.373932 0.183565 2.975838 41.046322 -0.499548 5.048784 0.000000 0.000001 -0.000001 -0.000001 -0.000001 0.000001 0.000002 -0.000001 0.000002 -0.038000 -0.085200 0.016200 -0.000003 0.000002 0.000001 0.000000 0.000000 0.000000 -1.252161 -0.158830 2.329819 2.081271 0.065300 0.674243 22.634861 0.138193 -1.393815 -0.000003 -0.000001 0.000001 0.000001 -0.000000 0.000000 -0.000005 0.000000 0.000000 0.038000 -0.085200 0.016200 -0.000000 -0.000001 0.000001 
-0.012708 0.285127 -0.019031 64.830510 61.210147 -67.982703 0.000001 -0.000000 -0.000000 0.000002 0.000000 -0.000000 -0.000002 -0.000001 0.000000 -0.000001 0.000001 -0.000000 0.000924 0.155147 0.009274 18.629360 -0.019986 3.785167 0.019937 0.078966 0.057518 -19.688994 4.028862 32.918192 0.177024 -0.020465 -0.095062 -58.927402 -0.403905 -40.564797 -3.534633 78.503537 -155.360343 -0.000001 -0.000001 0.000005 0.021770 -0.038291 0.012954 0.000001 0.000003 0.000003 -0.000002 -0.000001 -0.000004 0.000002 0.000001 0.000005 -0.000002 0.000001 -0.000003 -0.009090 -0.002348 -0.024223 -0.000000 -0.000000 -0.000003 -0.000000 -0.000001 -0.000001 -0.000002 0.000001 -0.000006 0.032823 -0.025104 0.012281 -0.000001 0.000003 0.000007 0.000001 -0.000001 -0.000000 -0.000006 -0.000002 -0.000002 -0.000003 -0.000002 0.000004 0.039230 -0.011402 0.008390 -0.000001 -0.000000 0.000004 0.000004 0.000001 -0.000000 -0.000003 0.000003 -0.000004 -0.000001 -0.000004 0.000003 0.043417 0.002450 0.002889 -0.000000 0.000001 0.000003 0.000003 -0.000004 -0.000004 0.000001 0.000004 -0.000001 -0.000000 -0.000002 0.000001 -0.016662 0.078957 0.057696 -22.529910 11.374882 -48.038151 -0.176972 -0.020537 -0.095144 7.738743 14.842887 -36.071417 -11.508762 -23.521706 -66.827425 0.000003 0.000000 0.000002 -0.021773 -0.038278 0.012988 0.000001 -0.000002 -0.000002 -0.000002 -0.000000 -0.000001 -0.000001 0.000001 -0.000002 0.000002 -0.000003 0.000003 0.009114 -0.002381 -0.024212 -0.000000 -0.000002 0.000004 0.000003 -0.000000 0.000000 0.000001 -0.000002 -0.000001 -0.032828 -0.025095 0.012286 -0.000001 -0.000001 0.000001 0.000002 0.000000 0.000001 0.000000 0.000005 0.000000 -0.000003 0.000004 -0.000000 -0.039192 -0.011488 0.008390 -0.000000 -0.000001 0.000001 -0.000000 0.000004 0.000002 0.000004 -0.000002 -0.000000 -0.000004 0.000003 -0.000001 -0.043421 0.002443 0.002845 -0.000001 -0.000002 0.000002 -0.000005 0.000002 -0.000001 -0.000000 -0.000004 -0.000003 -0.000002 0.000002 0.000001 -0.000000 0.000000 -0.000000 -1.457633 -0.840009 9.664695 -47.789242 0.330493 7.008034 105.054764 -0.039094 0.396701 0.000002 -0.000001 0.000002 -0.000002 0.000000 -0.000001 -0.000002 -0.000001 -0.000000 -0.038000 -0.085200 0.016200 0.000001 0.000000 0.000000 0.000000 0.000000 -0.000000 -1.450258 -0.838682 10.898976 -50.233678 0.423894 2.139457 100.083814 1.333932 -13.585353 0.000000 0.000000 0.000000 -0.000001 0.000000 -0.000000 0.000007 0.000000 0.000000 0.038000 -0.085200 0.016200 -0.000006 0.000000 0.000000 
-0.023859 0.291829 -0.017389 88.100650 53.538496 -83.570069 0.000001 0.000000 -0.000000 -0.000002 -0.000000 0.000000 0.000002 -0.000000 0.000000 -0.000001 0.000000 0.000001 0.000924 0.155148 0.009274 25.149469 -0.019165 3.168886 0.019937 0.078966 0.057518 -10.939386 4.590539 32.991272 0.177024 -0.020465 -0.095062 -27.632987 2.393471 -35.468069 3.362690 61.655476 -168.404393 -0.000002 0.000002 0.000003 0.021770 -0.038291 0.012954 0.000001 0.000004 -0.000004 -0.000000 -0.000002 0.000001 -0.000003 0.000001 0.000005 -0.000000 0.000003 -0.000000 -0.009090 -0.002348 -0.024224 0.000001 -0.000002 -0.000001 -0.000005 -0.000003 0.000003 0.000001 0.000002 0.000003 0.032823 -0.025104 0.012281 -0.000002 0.000005 0.000002 -0.000004 0.000000 -0.000007 -0.000004 -0.000003 0.000001 -0.000003 0.000000 -0.000001 0.039230 -0.011402 0.008390 -0.000000 0.000001 0.000001 0.000001 0.000002 -0.000000 0.000002 0.000002 0.000003 0.000000 -0.000006 0.000002 0.043417 0.002450 0.002889 -0.000000 -0.000001 -0.000002 0.000002 -0.000003 0.000001 0.000004 0.000002 -0.000001 0.000000 0.000002 -0.000003 -0.016662 0.078957 0.057696 -25.031487 11.384512 -40.959825 -0.176972 -0.020537 -0.095144 -0.228186 -5.339152 -7.230580 3.364398 -8.255940 -104.402139 -0.000003 -0.000002 0.000002 -0.021773 -0.038278 0.012988 -0.000001 -0.000004 -0.000003 -0.000001 0.000006 0.000001 -0.000003 -0.000004 -0.000005 -0.000000 0.000005 0.000004 0.009113 -0.002381 -0.024212 0.000004 0.000003 0.000003 -0.000001 0.000002 -0.000001 -0.000002 -0.000001 -0.000004 -0.032828 -0.025095 0.012286 0.000001 0.000003 -0.000006 -0.000000 -0.000003 -0.000001 0.000005 -0.000001 -0.000001 0.000000 0.000003 -0.000006 -0.039192 -0.011488 0.008390 0.000001 0.000001 -0.000004 -0.000000 0.000006 -0.000003 -0.000001 -0.000001 0.000003 -0.000000 0.000001 -0.000001 -0.043421 0.002443 0.002844 0.000001 0.000001 -0.000003 -0.000000 0.000003 0.000001 0.000001 0.000000 0.000000 0.000004 0.000002 0.000001 -0.000000 0.000000 0.000000 -1.396916 -0.669025 7.634102 -90.564490 0.108144 5.029297 122.407167 0.448675 -4.529274 -0.000003 -0.000000 -0.000000 -0.000002 0.000000 0.000001 0.000003 0.000001 0.000000 -0.038000 -0.085200 0.016200 0.000002 0.000001 0.000001 -0.000000 0.000000 0.000000 -1.385722 -0.667413 8.868406 -85.929066 0.490620 2.015146 124.424258 0.301065 -3.035916 0.000000 0.000001 0.000000 0.000006 0.000000 0.000000 0.000003 0.000001 0.000000 0.038000 -0.085200 0.016200 0.000000 -0.000001 0.000000 
-0.024477 0.284695 -0.028259 67.942726 47.762820 -68.257454 0.000003 0.000000 0.000000 -0.000003 0.000000 -0.000000 0.000003 0.000002 -0.000002 0.000002 0.000000 -0.000001 0.000924 0.155148 0.009274 14.961365 -0.019881 -5.209273 0.019937 0.078966 0.057518 0.657725 3.684753 31.211413 0.177024 -0.020465 -0.095062 -10.134772 9.961541 -41.097043 -46.672646 25.618761 -96.086534 -0.000002 0.000002 0.000001 0.021770 -0.038291 0.012954 0.000002 -0.000000 -0.000002 -0.000000 0.000000 -0.000000 -0.000001 0.000005 0.000005 -0.000000 0.000003 -0.000002 -0.009090 -0.002348 -0.024224 0.000003 -0.000000 -0.000001 0.000000 0.000001 -0.000000 -0.000001 -0.000000 0.000001 0.032823 -0.025104 0.012281 0.000001 -0.000000 0.000002 -0.000001 0.000000 -0.000005 -0.000004 -0.000003 0.000001 -0.000000 0.000003 -0.000001 0.039230 -0.011402 0.008390 0.000001 -0.000004 0.000001 -0.000003 0.000001 0.000001 0.000001 0.000003 -0.000001 0.000005 -0.000003 0.000006 0.043418 0.002450 0.002889 0.000000 -0.000002 -0.000005 -0.000000 0.000000 0.000001 0.000001 0.000000 0.000001 0.000004 -0.000003 -0.000003 -0.016662 0.078957 0.057696 -11.839160 6.395665 -34.524253 -0.176972 -0.020537 -0.095144 11.039585 -16.840082 39.175626 -53.879312 2.966378 60.365963 -0.000001 -0.000000 0.000000 -0.021773 -0.038278 0.012988 0.000002 0.000001 0.000000 -0.000001 0.000003 -0.000003 -0.000002 -0.000004 -0.000006 -0.000003 0.000004 0.000005 0.009113 -0.002381 -0.024212 0.000000 -0.000003 -0.000005 -0.000001 -0.000005 -0.000002 -0.000002 -0.000003 -0.000006 -0.032828 -0.025095 0.012286 0.000001 0.000001 -0.000004 -0.000002 0.000001 -0.000003 -0.000004 -0.000001 -0.000001 -0.000000 0.000004 -0.000007 -0.039192 -0.011488 0.008390 0.000004 0.000005 -0.000000 -0.000000 0.000003 0.000000 -0.000000 0.000001 0.000000 -0.000003 0.000000 -0.000003 -0.043421 0.002443 0.002845 0.000000 0.000000 -0.000003 -0.000004 0.000002 -0.000002 -0.000000 -0.000004 -0.000002 -0.000001 0.000001 0.000001 -0.000000 0.000000 0.000000 -1.630683 -0.638483 6.850031 -94.172913 -0.579291 -3.889794 82.101633 -0.385405 3.893792 -0.000003 0.000002 -0.000000 -0.000004 -0.000000 -0.000001 -0.000002 0.000002 -0.000001 -0.038000 -0.085200 0.016200 0.000000 0.000001 -0.000002 -0.000000 0.000000 0.000000 -1.614993 -0.636433 8.084389 -88.389902 0.808069 6.089485 77.580765 -0.168588 1.703082 -0.000005 0.000001 -0.000000 -0.000001 -0.000000 0.000000 0.000002 0.000001 -0.000001 0.038000 -0.085200 0.016200 0.000000 0.000001 -0.000001 
